<svg xmlns="http://www.w3.org/2000/svg" width="150" height="150" viewBox="0 0 150 150"><path fill="#ebf0f3" d="M129.577 13.528H20.423c-9.63 0-17.439 7.808-17.439 17.44V132.56c0 9.631 7.808 17.439 17.44 17.439h109.153c9.63 0 17.439-7.808 17.439-17.439V30.967c0-9.631-7.808-17.439-17.44-17.439z"/><path fill="#ce412d" d="M147.016 46.294v-21.13c0-9.631-7.808-17.439-17.44-17.439H20.424c-9.63 0-17.439 7.808-17.439 17.44v21.13z"/><path fill="#e56353" d="M147.016 50.236V30.967c0-9.63-7.808-17.439-17.44-17.439H20.424c-9.63 0-17.439 7.808-17.439 17.44v19.268z"/><path fill="#d15241" d="M31.55 22.894a6.087 6.087 0 1 0 0 12.173 6.087 6.087 0 0 0 0-12.173z"/><path fill="#4d5c7d" d="M31.55 0a3.257 3.257 0 0 0-3.257 3.256v25.37a3.256 3.256 0 1 0 6.512 0V3.256A3.256 3.256 0 0 0 31.55 0Z"/><path fill="#d15241" d="M60.516 22.894a6.087 6.087 0 1 0 0 12.173 6.087 6.087 0 0 0 0-12.173z"/><path fill="#4d5c7d" d="M60.516 0a3.257 3.257 0 0 0-3.256 3.256v25.37a3.256 3.256 0 1 0 6.513 0V3.256A3.257 3.257 0 0 0 60.516 0Z"/><path fill="#d15241" d="M89.484 22.894a6.087 6.087 0 1 0 0 12.173 6.087 6.087 0 0 0 0-12.173z"/><path fill="#4d5c7d" d="M89.484 0a3.257 3.257 0 0 0-3.257 3.256v25.37a3.256 3.256 0 1 0 6.513 0V3.256A3.257 3.257 0 0 0 89.484 0Z"/><path fill="#d15241" d="M118.45 22.894a6.087 6.087 0 1 0 0 12.173 6.087 6.087 0 0 0 0-12.173z"/><path fill="#4d5c7d" d="M118.45 0a3.257 3.257 0 0 0-3.256 3.256v25.37a3.256 3.256 0 1 0 6.512 0V3.256A3.256 3.256 0 0 0 118.45 0Z"/><path fill="#e56353" d="M56.129 74.33h13.163v13.164H56.13Zm24.579 0H93.87v13.164H80.708Zm24.579 0h13.164v13.164h-13.164ZM31.549 94.968h13.164v13.163H31.549Zm24.58 0h13.163v13.163H56.13Zm24.579 0H93.87v13.163H80.708Zm24.579 0h13.164v13.163h-13.164Zm-73.738 20.636h13.164v13.163H31.549Zm24.58 0h13.163v13.163H56.13Zm24.579 0H93.87v13.163H80.708Z"/></svg>